<svg width="213" height="12" fill="none" xmlns="http://www.w3.org/2000/svg"><path d="M2.443.469l2.79 6.96L8.02.47h1.46V9H8.354V5.678l.106-3.586L5.66 9h-.862L2.004 2.11l.111 3.568V9H.99V.469h1.453zM15.211 9c-.063-.125-.113-.348-.152-.668-.504.523-1.106.785-1.805.785-.625 0-1.139-.176-1.541-.527a1.728 1.728 0 01-.598-1.348c0-.66.25-1.172.75-1.535.504-.367 1.211-.55 2.121-.55h1.055v-.499c0-.379-.113-.68-.34-.902-.226-.227-.56-.34-1.002-.34-.386 0-.71.098-.972.293-.262.195-.393.432-.393.709h-1.09c0-.316.111-.621.334-.914.227-.297.531-.531.914-.703.387-.172.81-.258 1.272-.258.73 0 1.302.184 1.716.55.415.364.63.866.645 1.507v2.918c0 .582.074 1.045.223 1.388V9H15.21zm-1.799-.826c.34 0 .662-.088.967-.264.305-.176.525-.404.662-.685V5.924h-.85c-1.328 0-1.992.388-1.992 1.166 0 .34.114.605.34.797.227.191.518.287.873.287zm7.477-4.541a3.25 3.25 0 00-.534-.041c-.71 0-1.193.303-1.447.908V9h-1.084V2.66h1.055l.017.733c.356-.567.86-.85 1.512-.85.211 0 .371.027.48.082v1.008zm.597 2.138c0-.62.121-1.18.364-1.675a2.758 2.758 0 011.02-1.149 2.79 2.79 0 011.493-.404c.864 0 1.56.299 2.092.896.535.598.803 1.393.803 2.385V5.9a3.77 3.77 0 01-.358 1.664 2.67 2.67 0 01-1.013 1.143c-.438.273-.942.41-1.512.41-.86 0-1.557-.299-2.092-.896-.531-.598-.797-1.389-.797-2.373V5.77zm1.09.13c0 .703.162 1.267.486 1.693.329.426.766.638 1.313.638.55 0 .988-.214 1.313-.644.324-.434.486-1.04.486-1.817 0-.695-.166-1.257-.498-1.687a1.564 1.564 0 00-1.313-.65c-.535 0-.966.212-1.295.638-.328.426-.492 1.035-.492 1.828zm5.754-.13c0-.62.121-1.18.363-1.675a2.758 2.758 0 011.02-1.149 2.79 2.79 0 011.494-.404c.863 0 1.56.299 2.092.896.535.598.803 1.393.803 2.385V5.9a3.77 3.77 0 01-.358 1.664 2.67 2.67 0 01-1.014 1.143c-.437.273-.94.41-1.511.41-.86 0-1.557-.299-2.092-.896-.531-.598-.797-1.389-.797-2.373V5.77zm1.09.13c0 .703.162 1.267.486 1.693.328.426.766.638 1.313.638.55 0 .988-.214 1.312-.644.325-.434.487-1.04.487-1.817 0-.695-.166-1.257-.498-1.687a1.564 1.564 0 00-1.313-.65c-.535 0-.967.212-1.295.638-.328.426-.492 1.035-.492 1.828zm7.066-3.24l.036.796c.484-.61 1.117-.914 1.898-.914 1.34 0 2.015.756 2.027 2.268V9h-1.084V4.805c-.004-.457-.11-.795-.316-1.014-.203-.219-.522-.328-.955-.328-.352 0-.66.094-.926.281a1.91 1.91 0 00-.621.738V9H35.46V2.66h1.025zM67.299 9h-5.59v-.78l2.953-3.28c.438-.497.738-.899.902-1.208.168-.312.252-.634.252-.966 0-.446-.134-.81-.404-1.096-.27-.285-.629-.428-1.078-.428-.54 0-.959.154-1.26.463-.297.305-.445.73-.445 1.277h-1.084c0-.785.252-1.42.756-1.904.508-.484 1.185-.726 2.033-.726.793 0 1.42.209 1.88.627.462.414.692.966.692 1.658 0 .84-.535 1.84-1.605 3l-2.285 2.478h4.283V9zm6.498-3.639c0 1.27-.217 2.213-.65 2.83-.434.618-1.112.926-2.034.926-.91 0-1.584-.3-2.021-.902-.438-.606-.664-1.508-.68-2.707V4.06c0-1.254.217-2.186.65-2.795.434-.61 1.114-.914 2.04-.914.917 0 1.593.294 2.027.884.433.586.656 1.493.668 2.72V5.36zM72.713 3.88c0-.918-.129-1.586-.387-2.004-.258-.422-.666-.633-1.224-.633-.555 0-.96.21-1.213.627-.254.418-.385 1.06-.393 1.928V5.53c0 .922.133 1.604.398 2.045.27.438.676.656 1.22.656.534 0 .93-.207 1.189-.62.261-.415.398-1.067.41-1.958V3.88zM80.775 9h-5.59v-.78l2.954-3.28c.437-.497.738-.899.902-1.208.168-.312.252-.634.252-.966 0-.446-.135-.81-.404-1.096-.27-.285-.63-.428-1.078-.428-.54 0-.96.154-1.26.463-.297.305-.445.73-.445 1.277h-1.084c0-.785.251-1.42.755-1.904.508-.484 1.186-.726 2.034-.726.792 0 1.42.209 1.88.627.461.414.692.966.692 1.658 0 .84-.535 1.84-1.606 3l-2.285 2.478h4.283V9zm6.498-3.639c0 1.27-.216 2.213-.65 2.83-.434.618-1.111.926-2.033.926-.91 0-1.584-.3-2.022-.902-.437-.606-.664-1.508-.68-2.707V4.06c0-1.254.218-2.186.651-2.795.434-.61 1.113-.914 2.04-.914.917 0 1.593.294 2.027.884.433.586.656 1.493.667 2.72V5.36zM86.19 3.88c0-.918-.128-1.586-.386-2.004-.258-.422-.666-.633-1.225-.633-.555 0-.959.21-1.213.627-.254.418-.384 1.06-.392 1.928V5.53c0 .922.133 1.604.398 2.045.27.438.676.656 1.219.656.535 0 .931-.207 1.19-.62.261-.415.398-1.067.41-1.958V3.88zM91.92 9V.469h2.79c.926 0 1.621.191 2.086.574.469.383.703.95.703 1.7 0 .398-.113.751-.34 1.06a2.214 2.214 0 01-.926.709 1.96 1.96 0 011.09.738c.27.36.405.79.405 1.29 0 .765-.249 1.366-.745 1.804-.496.437-1.197.656-2.103.656h-2.96zm1.126-3.99v3.07h1.857c.524 0 .936-.135 1.237-.404.304-.274.457-.649.457-1.125 0-1.028-.559-1.541-1.676-1.541h-1.875zm0-.903h1.7c.491 0 .884-.123 1.177-.369.297-.246.445-.58.445-1.002 0-.468-.136-.808-.41-1.02-.273-.214-.69-.321-1.248-.321h-1.664v2.712zm8.725 4.125a1.56 1.56 0 001.013-.351 1.24 1.24 0 00.481-.88h1.025a1.957 1.957 0 01-.375 1.038 2.46 2.46 0 01-.926.785 2.645 2.645 0 01-1.218.293c-.864 0-1.551-.287-2.063-.861-.508-.578-.762-1.367-.762-2.367v-.182c0-.617.114-1.166.34-1.646.227-.48.55-.854.973-1.12.426-.265.928-.398 1.506-.398.711 0 1.3.213 1.769.639.473.425.725.978.756 1.658h-1.025a1.482 1.482 0 00-.469-1.008 1.432 1.432 0 00-1.031-.398c-.551 0-.979.199-1.284.597-.3.395-.451.967-.451 1.717v.205c0 .73.151 1.293.451 1.688.301.394.731.591 1.29.591zm6.369.885c-.86 0-1.559-.281-2.098-.844-.539-.566-.809-1.322-.809-2.267v-.2c0-.628.12-1.189.358-1.681a2.811 2.811 0 011.008-1.16 2.533 2.533 0 011.406-.422c.824 0 1.465.271 1.922.814.457.543.685 1.32.685 2.332v.452h-4.295c.016.625.198 1.13.545 1.517.352.383.797.574 1.336.574.383 0 .707-.078.973-.234.266-.156.498-.363.697-.621l.662.516c-.531.816-1.328 1.224-2.39 1.224zm-.135-5.683c-.438 0-.805.16-1.102.48-.297.316-.48.762-.55 1.336h3.175v-.082c-.031-.55-.179-.977-.445-1.277-.266-.305-.625-.457-1.078-.457zM120.033 9h-1.084V3.557h-2.918V9h-1.09V2.66h5.092V9zm7.096-3.1c0 .965-.221 1.743-.662 2.332-.442.59-1.039.885-1.793.885-.77 0-1.375-.244-1.817-.732v3.053h-1.084V2.66h.991l.052.703c.442-.547 1.055-.82 1.84-.82.762 0 1.364.287 1.805.861.445.575.668 1.373.668 2.397v.1zm-1.084-.123c0-.715-.152-1.279-.457-1.693-.305-.414-.723-.621-1.254-.621-.656 0-1.148.29-1.477.873v3.03c.325.577.821.866 1.489.866.519 0 .931-.205 1.236-.615.309-.414.463-1.027.463-1.84zM132.426 9c-.063-.125-.114-.348-.153-.668-.503.523-1.105.785-1.804.785-.625 0-1.139-.176-1.541-.527a1.727 1.727 0 01-.598-1.348c0-.66.25-1.172.75-1.535.504-.367 1.211-.55 2.121-.55h1.055v-.499c0-.379-.113-.68-.34-.902-.227-.227-.561-.34-1.002-.34-.387 0-.711.098-.973.293-.261.195-.392.432-.392.709h-1.09c0-.316.111-.621.334-.914.227-.297.531-.531.914-.703a3.099 3.099 0 011.272-.258c.73 0 1.302.184 1.716.55.414.364.629.866.645 1.507v2.918c0 .582.074 1.045.222 1.388V9h-1.136zm-1.799-.826c.34 0 .662-.088.967-.264a1.6 1.6 0 00.662-.685V5.924h-.85c-1.328 0-1.992.388-1.992 1.166 0 .34.113.605.34.797.226.191.517.287.873.287zm4.512.826V2.66h2.472c.844 0 1.491.149 1.94.445.453.293.679.725.679 1.295 0 .293-.087.559-.263.797-.176.235-.436.414-.779.54.382.09.689.265.919.527.235.261.352.574.352.937 0 .582-.215 1.028-.645 1.336-.425.309-1.029.463-1.81.463h-2.865zm1.084-2.783v1.91h1.793c.453 0 .791-.084 1.013-.252.227-.168.34-.404.34-.709 0-.633-.465-.95-1.394-.95h-1.752zm0-.867h1.4c1.016 0 1.523-.297 1.523-.891 0-.594-.48-.9-1.441-.92h-1.482v1.81zM145.809 9c-.063-.125-.114-.348-.153-.668-.504.523-1.105.785-1.804.785-.625 0-1.139-.176-1.541-.527a1.727 1.727 0 01-.598-1.348c0-.66.25-1.172.75-1.535.504-.367 1.211-.55 2.121-.55h1.055v-.499c0-.379-.114-.68-.34-.902-.227-.227-.561-.34-1.002-.34-.387 0-.711.098-.973.293-.262.195-.392.432-.392.709h-1.09c0-.316.111-.621.334-.914a2.31 2.31 0 01.914-.703c.387-.172.81-.258 1.271-.258.731 0 1.303.184 1.717.55.414.364.629.866.645 1.507v2.918c0 .582.074 1.045.222 1.388V9h-1.136zm-1.799-.826c.34 0 .662-.088.967-.264a1.6 1.6 0 00.662-.685V5.924h-.85c-1.328 0-1.992.388-1.992 1.166 0 .34.113.605.34.797.226.191.517.287.873.287zm10.875-3.78a.837.837 0 00-.34-.703c-.227-.175-.537-.263-.932-.263-.383 0-.703.1-.961.299-.254.199-.381.433-.381.703h-1.078c0-.551.231-1.002.692-1.354.461-.351 1.037-.527 1.728-.527.742 0 1.321.16 1.735.48.414.317.621.77.621 1.36 0 .285-.086.547-.258.785a1.758 1.758 0 01-.732.568c.738.25 1.107.742 1.107 1.477 0 .582-.225 1.043-.674 1.383-.449.34-1.049.51-1.799.51-.73 0-1.334-.178-1.81-.534-.473-.36-.709-.844-.709-1.453h1.078c0 .309.137.574.41.797.277.219.621.328 1.031.328.414 0 .748-.096 1.002-.287a.89.89 0 00.381-.744c0-.356-.107-.61-.322-.762-.211-.156-.541-.234-.99-.234H152.6v-.914h1.177c.739-.02 1.108-.325 1.108-.914zM161.406 9c-.062-.125-.113-.348-.152-.668-.504.523-1.106.785-1.805.785-.625 0-1.138-.176-1.541-.527a1.729 1.729 0 01-.597-1.348c0-.66.25-1.172.75-1.535.503-.367 1.21-.55 2.121-.55h1.054v-.499c0-.379-.113-.68-.34-.902-.226-.227-.56-.34-1.001-.34-.387 0-.711.098-.973.293-.262.195-.393.432-.393.709h-1.09c0-.316.112-.621.334-.914a2.32 2.32 0 01.915-.703 3.09 3.09 0 011.271-.258c.73 0 1.303.184 1.717.55.414.364.629.866.644 1.507v2.918c0 .582.075 1.045.223 1.388V9h-1.137zm-1.799-.826c.34 0 .663-.088.967-.264a1.59 1.59 0 00.662-.685V5.924h-.849c-1.328 0-1.992.388-1.992 1.166 0 .34.113.605.339.797.227.191.518.287.873.287zm5.532-5.514v5.455h2.32V2.66h1.084v5.455h2.314V2.66h1.09v5.455h.891l-.106 2.766h-.972V9h-7.711V2.66h1.09zm12.908 0h1.084V9h-1.084V4.377L175.123 9h-1.084V2.66h1.084v4.63l2.924-4.63zm3.943 0v5.455h2.321V2.66h1.084v5.455h2.314V2.66h1.09v5.455h.89l-.105 2.766h-.973V9H180.9V2.66h1.09zm11.508 6.457c-.859 0-1.559-.281-2.098-.844-.539-.566-.808-1.322-.808-2.267v-.2c0-.628.119-1.189.357-1.681a2.811 2.811 0 011.008-1.16 2.535 2.535 0 011.406-.422c.825 0 1.465.271 1.922.814.457.543.686 1.32.686 2.332v.452h-4.295c.015.625.197 1.13.545 1.517.351.383.797.574 1.336.574.382 0 .707-.078.972-.234.266-.156.498-.363.698-.621l.662.516c-.532.816-1.328 1.224-2.391 1.224zm-.135-5.683c-.437 0-.804.16-1.101.48-.297.316-.481.762-.551 1.336h3.176v-.082c-.032-.55-.18-.977-.446-1.277-.265-.305-.625-.457-1.078-.457zM202.41 9h-1.084V6.293h-2.912V9h-1.09V2.66h1.09v2.748h2.912V2.66h1.084V9zm2.93-4.154h1.646c.719.008 1.287.195 1.705.562.418.367.627.865.627 1.494 0 .633-.214 1.141-.644 1.524-.43.383-1.008.574-1.735.574h-2.683V2.66h1.084v2.186zM211.58 9h-1.09V2.66h1.09V9zm-6.24-3.27v2.385h1.611c.406 0 .721-.103.944-.31.222-.211.334-.498.334-.862 0-.351-.11-.638-.329-.861-.214-.227-.517-.344-.908-.352h-1.652zM51.5 0C53.984 0 56 2.016 56 4.5S53.984 9 51.5 9A4.502 4.502 0 0147 4.5C47 2.016 49.016 0 51.5 0zm0 .9a3.599 3.599 0 00-3.6 3.6c0 1.989 1.611 3.6 3.6 3.6s3.6-1.611 3.6-3.6S53.489.9 51.5.9zm0 1.35a2.25 2.25 0 011.93 1.093l-.772.463a1.35 1.35 0 100 1.389l.772.462A2.25 2.25 0 1151.5 2.25z" fill="#FCFCFC"/></svg>