<svg width="13" height="16" fill="none" xmlns="http://www.w3.org/2000/svg"><path d="M11.096 11.314L6.5 16l-4.596-4.686A6.669 6.669 0 01.124 7.92a6.748 6.748 0 01.37-3.829A6.601 6.601 0 012.89 1.117 6.411 6.411 0 016.5 0c1.286 0 2.542.389 3.611 1.117a6.602 6.602 0 012.394 2.974 6.748 6.748 0 01.37 3.83 6.668 6.668 0 01-1.779 3.393zM6.5 8.1c.383 0 .75-.155 1.021-.431.271-.276.423-.651.423-1.042 0-.39-.152-.765-.423-1.041A1.43 1.43 0 006.5 5.155c-.383 0-.75.155-1.021.431-.271.276-.423.65-.423 1.041 0 .391.152.766.423 1.042.27.276.638.431 1.021.431z" fill="#EC5118"/></svg>